<svg width="491.996" height="491.996" xmlns="http://www.w3.org/2000/svg">
 <g>
  <title>background</title>
  <rect x="-1" y="-1" width="493.996" height="493.996" id="canvas_background" fill="none"/>
 </g>

 <g>
  <title>Layer 1</title>
  <g id="svg_1">
   <g id="svg_2">
    <path d="m484.132,124.986l-16.116,-16.228c-5.072,-5.068 -11.82,-7.86 -19.032,-7.86c-7.208,0 -13.964,2.792 -19.036,7.86l-183.84,183.848l-184.052,-184.052c-5.064,-5.068 -11.82,-7.856 -19.028,-7.856s-13.968,2.788 -19.036,7.856l-16.12,16.128c-10.496,10.488 -10.496,27.572 0,38.06l219.136,219.924c5.064,5.064 11.812,8.632 19.084,8.632l0.084,0c7.212,0 13.96,-3.572 19.024,-8.632l218.932,-219.328c5.072,-5.064 7.856,-12.016 7.864,-19.224c0,-7.212 -2.792,-14.068 -7.864,-19.128z" id="svg_3" fill="#fcc6c6"/>
   </g>
  </g>
  <g id="svg_4"/>
  <g id="svg_5"/>
  <g id="svg_6"/>
  <g id="svg_7"/>
  <g id="svg_8"/>
  <g id="svg_9"/>
  <g id="svg_10"/>
  <g id="svg_11"/>
  <g id="svg_12"/>
  <g id="svg_13"/>
  <g id="svg_14"/>
  <g id="svg_15"/>
  <g id="svg_16"/>
  <g id="svg_17"/>
  <g id="svg_18"/>
 </g>
</svg>