<svg width="492.002" height="492.002" xmlns="http://www.w3.org/2000/svg">

 <g>
  <title>background</title>
  <rect fill="none" id="canvas_background" height="493.996" width="493.996" y="-1" x="-1"/>
 </g>
 <g>
  <title>Layer 1</title>
  <g id="svg_1">
   <g id="svg_2">
    <path fill="#ead7d7" id="svg_3" d="m484.136,328.473l-219.148,-219.144c-5.064,-5.064 -11.816,-7.844 -19.172,-7.844c-7.208,0 -13.964,2.78 -19.02,7.844l-218.944,218.936c-5.064,5.068 -7.852,11.824 -7.852,19.032c0,7.208 2.784,13.968 7.852,19.032l16.124,16.124c5.064,5.064 11.824,7.86 19.032,7.86s13.964,-2.796 19.032,-7.86l183.852,-183.852l184.056,184.064c5.064,5.06 11.82,7.852 19.032,7.852c7.208,0 13.96,-2.792 19.028,-7.852l16.128,-16.132c10.488,-10.492 10.488,-27.568 0,-38.06z"/>
   </g>
  </g>
  <g id="svg_4"/>
  <g id="svg_5"/>
  <g id="svg_6"/>
  <g id="svg_7"/>
  <g id="svg_8"/>
  <g id="svg_9"/>
  <g id="svg_10"/>
  <g id="svg_11"/>
  <g id="svg_12"/>
  <g id="svg_13"/>
  <g id="svg_14"/>
  <g id="svg_15"/>
  <g id="svg_16"/>
  <g id="svg_17"/>
  <g id="svg_18"/>
 </g>
</svg>